# xmcd
# 
# Track frame offsets:
#     150
#     16213
#     37911
#     53184
#     68927
#     82000
#     93424
#     109350
#     132618
#     153413
# 
# Disc length: 2335
# 
# Revision: 7
# Processed by: cddbd v1.5.2PL0 Copyright (c) Steve Scherf et al.
# Submitted via: fre:ac v1.1beta1pre5
# 
DISCID=84091d0a
DTITLE=MF DOOM - Special Herbs Disc 3
DYEAR=2006
DGENRE=Hip-Hop
TTITLE0=Who Me?
TTITLE1=Plumskinzz
TTITLE2=Humrush
TTITLE3=Garbage Day #3
TTITLE4=Constipated Monkey
TTITLE5=Contact Blitt
TTITLE6=What You Know?
TTITLE7=Get-U-Now
TTITLE8=Smokin'
TTITLE9=Roc
EXTD=10 secret herbs and spices from the KMD kitchen
EXTT0=
EXTT1=
EXTT2=
EXTT3=
EXTT4=
EXTT5=
EXTT6=
EXTT7=
EXTT8=
EXTT9=
PLAYORDER=
